{"title":"Ginger in the Morning (1974) DVDRip XviD-pong","uid":15475698,"size":729538560,"categoryP":"video","categoryS":"movies","magnet":"?xt=urn:btih:06d4369d7cc25916a3a3fd8e8f5164d3a31aaf1c&amp;dn=Ginger+in+the+Morning+%281974%29+DVDRip+XviD-pong&amp;tr=udp%3A%2F%2Ftracker.leechers-paradise.org%3A6969&amp;tr=udp%3A%2F%2Fzer0day.ch%3A1337&amp;tr=udp%3A%2F%2Fopen.demonii.com%3A1337&amp;tr=udp%3A%2F%2Ftracker.coppersurfer.tk%3A6969&amp;tr=udp%3A%2F%2Fexodus.desync.com%3A6969","seeders":2,"leechers":0,"uploader":"Pongydog","files":1,"time":1470188411,"description":"http://www.imdb.com/title/tt0070107/\r\n\r\n\r\n\r\nAn attractive young hitchhiker named Ginger (Sissy Spacek) meets and and takes up with a lonely, middle-aged advertising executive who is recently divorced. He is inspired by her free-spirited independence while she is drawn to his old-fashioned romanticism. \r\n\r\nGeneral\r\nComplete name                            : C:Ginger In The MorningVIDEO_TSGinger in the Morning (1974) DVDRip XviD-pong.avi\r\nFormat                                   : AVI\r\nFormat/Info                              : Audio Video Interleave\r\nFile size                                : 696 MiB\r\nDuration                                 : 1h 30mn\r\nOverall bit rate                         : 1 079 Kbps\r\nWriting application                      : VirtualDubMod 1.5.4.1 (build 2178/release)\r\nWriting library                          : VirtualDubMod build 2178/release\r\n\r\nVideo\r\nID                                       : 0\r\nFormat                                   : MPEG-4 Visual\r\nFormat profile                           : Advanced   \r\nFormat settings, BVOP                    : 1\r\nFormat settings, QPel                    : No\r\nFormat settings, GMC                     : No warppoints\r\nFormat settings, Matrix                  : Custom\r\nCodec ID                                 : XVID\r\nCodec ID/Hint                            : XviD\r\nDuration                                 : 1h 30mn\r\nBit rate                                 : 944 Kbps\r\nWidth                                    : 640 pixels\r\nHeight                                   : 480 pixels\r\nDisplay aspect ratio                     : 4:3\r\nFrame rate                               : 25.000 fps\r\nColor space                              : YUV\r\nChroma subsampling                       : 4:2:0\r\nBit depth                                : 8 bits\r\nScan type                                : Progressive\r\nCompression mode                         : Lossy\r\nBits/(Pixel*Frame)                       : 0.123\r\nStream size                              : 609 MiB (87%)\r\nWriting library                          : XviD 1.2.1 (UTC 2008-12-04)\r\n\r\nAudio\r\nID                                       : 1\r\nFormat                                   : MPEG Audio\r\nFormat version                           : Version 1\r\nFormat profile                           : Layer 3\r\nMode                                     : Joint stereo\r\nMode extension                           : MS Stereo\r\nCodec ID                                 : 55\r\nCodec ID/Hint                            : MP3\r\nDuration                                 : 1h 30mn\r\nBit rate mode                            : Constant\r\nBit rate                                 : 128 Kbps\r\nChannel(s)                               : 2 channels\r\nSampling rate                            : 48.0 KHz\r\nCompression mode                         : Lossy\r\nStream size                              : 82.5 MiB (12%)\r\nAlignment                                : Aligned on interleaves\r\nInterleave, duration                     : 80 ms (2.00 video frames)\r\nInterleave, preload duration             : 504 ms\r\nWriting library                          : LAME3.98r\r\nEncoding settings                        : -m j -V 4 -q 2 -lowpass 17 -b 128","torrent":{"xt":"urn:btih:06d4369d7cc25916a3a3fd8e8f5164d3a31aaf1c","amp;dn":"Ginger+in+the+Morning+%281974%29+DVDRip+XviD-pong","amp;tr":["udp%3A%2F%2Ftracker.leechers-paradise.org%3A6969","udp%3A%2F%2Fzer0day.ch%3A1337","udp%3A%2F%2Fopen.demonii.com%3A1337","udp%3A%2F%2Ftracker.coppersurfer.tk%3A6969","udp%3A%2F%2Fexodus.desync.com%3A6969"],"infoHash":"06d4369d7cc25916a3a3fd8e8f5164d3a31aaf1c","infoHashBuffer":{"type":"Buffer","data":[6,212,54,157,124,194,89,22,163,163,253,142,143,81,100,211,163,26,175,28]},"announce":[],"urlList":[]}}